<?xml version="1.0" encoding="UTF-8"?>
<svg id="Layer_2" xmlns="http://www.w3.org/2000/svg" viewBox="0 0 484.72 119.7">
  <defs>
    <style>
      .cls-1 {
        fill: #494949;
      }

      .cls-2 {
        fill: #999;
      }
    </style>
  </defs>
  <g id="Layer_1-2" data-name="Layer_1">
    <g>
      <g>
        <g>
          <g>
            <path class="cls-1" d="M14.21,50.75c-.34,1.7-1.43,2.82-2.89,2.53-1.51-.3-2.19-1.88-1.89-3.35.06-.33.16-.64.37-.92-.16,1.13.29,2.48,1.55,2.73,1.15.23,1.77-.49,1.99-1.53.06-.31.1-.62.1-.93l-5.92-1.17c-.73-.15-1.25-.27-1.79.35h-.04s.52-2.6.52-2.6h.04c.1.72,1.09.83,1.68.95l4.95.98c.59.12,1.54.38,1.93-.21h.04s-.64,3.16-.64,3.16Z"/>
            <path class="cls-1" d="M5.43,59.67c-.76-.6-1.04-1.7-1.01-2.63.03-.88.35-1.8,1.02-2.37.79-.68,1.7-.62,2.66-.59l3.57.11c.6.02,1.58.15,1.86-.52h.04l-.09,2.52h-.03c-.24-.67-1.21-.63-1.81-.64l-3.57-.11c-1.78-.07-2.63.65-2.68,2.01-.02.75.26,1.52.86,1.97.4.31.73.3,1.21.32l4.03.14c.59.01,1.57.13,1.85-.53h.04s-.09,2.51-.09,2.51h-.04c-.23-.68-1.21-.63-1.82-.65l-5.05-.17c-.6-.01-1.57-.13-1.85.54h-.04l.07-1.95.88.03Z"/>
            <path class="cls-1" d="M12.49,67.76c.45-.58.66-1.44.56-2.17-.1-.75-.52-1.66-1.43-1.54-1.82.23-1.2,4.76-3.65,5.07-1.43.19-2.95-1.12-3.21-3.16-.11-.81-.09-1.62.09-2.41l1.61-.6c-.58.87-.86,2-.72,3.03.09.74.7,1.82,1.62,1.71,2.07-.27,1.11-4.75,3.92-5.11,1.67-.21,2.53,1.4,2.74,3.01.09.65.08,1.34-.03,2l-1.5.19Z"/>
            <path class="cls-1" d="M11.09,74.28l-.72-2.52,3.61.35-2.88,2.17ZM10.25,74.93l-1.62,1.19c-.8.6-.91.74-1.38.19h-.03s.76,2.63.76,2.63h.03c.17-.84.83-1.28,1.47-1.77l5.84-4.53-.58-2.01h-.04c-.02.68-.62.59-1.14.54l-5.98-.62c-.81-.08-1.6-.09-2.18-.73h-.04s.67,2.36.67,2.36h.04c.06-.69.45-.71,1.26-.64l2,.15.93,3.23Z"/>
            <path class="cls-1" d="M10.45,80.16c-.68.33-1.16.54-1.22,1.36l-.04.02-1.04-2.11.04-.02c.68.45,1.16.21,1.83-.11l4.8-2.31c.68-.33,1.16-.56,1.22-1.36l.04-.02.86,1.74h-.02c-.12.12-.16.2-.21.33l-.16.28-3.41,7.05,4.56-2.2c.68-.33,1.17-.54,1.21-1.35l.04-.02,1.03,2.1h-.03c-.67-.43-1.15-.2-1.82.12l-6.75,3.27c-.12-.99.09-1.55.51-2.41l3.22-6.62-4.66,2.25Z"/>
            <path class="cls-1" d="M17.99,93.1c-.56.49-.97.84-.8,1.64l-.03.03-1.59-1.74.03-.03c.78.25,1.18-.1,1.74-.6l3.97-3.55c.56-.49.95-.85.78-1.63l.03-.03,1.31,1.44h0c-.09.14-.1.24-.12.38l-.07.31-1.31,7.71,3.77-3.37c.56-.5.97-.84.79-1.63l.04-.03,1.57,1.74-.03.03c-.76-.24-1.16.1-1.72.6l-5.58,4.99c-.4-.92-.35-1.52-.17-2.46l1.25-7.24-3.84,3.43Z"/>
            <path class="cls-1" d="M29.01,100.47l-2.08-1.61,3.12-1.83-1.04,3.44ZM28.72,101.47l-.6,1.92c-.29.95-.29,1.13-.99.96l-.03.04,2.17,1.67.03-.03c-.37-.77-.1-1.5.13-2.28l2.02-7.07-1.67-1.29-.03.04c.38.55-.16.83-.61,1.1l-5.19,3c-.7.41-1.34.86-2.2.7l-.02.03,1.94,1.49.02-.03c-.35-.58-.04-.83.64-1.24l1.71-1.06,2.67,2.05Z"/>
            <path class="cls-1" d="M33.25,106.33c-.4.66-.66,1.1-.26,1.81v.03s-2.31-1.31-2.31-1.31l.02-.04c.7.12,1.13-.76,1.43-1.28l3-5.12-1.02-.59c-.5-.28-1.09-.46-1.65-.34l-.04-.02,1.21-1.13.03.02c.1.14.26.23.39.33l.3.17,4.31,2.49c.2.11.38.21.58.22l.03.02-1.17,1.16-.03-.02c.08-.49-.35-.82-.72-1.04l-1.04-.59-3.06,5.23Z"/>
            <path class="cls-1" d="M39.57,103.76c.25-.56.73-1.41.2-1.91v-.04s2.34,1.02,2.34,1.02v.03c-.73-.03-1.05.9-1.29,1.45l-2.03,4.58c-.25.55-.71,1.4-.21,1.9l-.02.03-2.33-1.01.02-.03c.71.05,1.03-.89,1.27-1.43l2.03-4.58Z"/>
            <path class="cls-1" d="M46.98,105.25c2.04.56,2.73,2.7,2.2,4.56-.54,1.91-2.19,2.98-4.15,2.43-2.03-.56-2.78-2.75-2.28-4.54.55-1.93,2.23-3.01,4.23-2.45ZM47.34,104.35c-2.69-.81-5.39.63-6.07,3.06-.75,2.62.9,5.03,3.45,5.74,2.56.71,5.28-.58,6-3.19.65-2.3-.68-4.87-3.38-5.61Z"/>
            <path class="cls-1" d="M52.9,112.82c-.06.75-.11,1.27.57,1.73v.04s-2.37-.18-2.37-.18v-.03c.74-.36.79-.89.84-1.63l.39-5.28c.05-.75.1-1.27-.57-1.72v-.04l1.95.15h0c.04.17.09.24.18.35l.16.28,4.43,6.48.38-5.03c.05-.73.11-1.27-.58-1.71v-.03s2.35.17,2.35.17v.04c-.72.34-.77.88-.82,1.62l-.56,7.42c-.93-.39-1.31-.85-1.84-1.64l-4.14-6.1-.39,5.12Z"/>
            <path class="cls-1" d="M66.15,110.4l-2.63.26.98-3.45,1.65,3.19ZM66.64,111.34l.91,1.79c.46.89.58,1.03-.05,1.38v.04s2.74-.28,2.74-.28v-.04c-.81-.31-1.13-1.02-1.5-1.74l-3.47-6.5-2.1.21v.04c.66.13.47.71.33,1.21l-1.66,5.73c-.22.78-.36,1.54-1.1,2v.04s2.45-.25,2.45-.25v-.04c-.67-.17-.61-.56-.41-1.33l.49-1.93,3.37-.34Z"/>
            <path class="cls-1" d="M74.65,112.04c.9-.19,1.58-.68,2.08-1.39h.04s-.21,1.87-.21,1.87l-5.32,1.41v-.04c.58-.41.25-1.34.09-1.91l-1.29-4.83c-.16-.59-.34-1.55-1.07-1.61v-.04s2.46-.65,2.46-.65v.04c-.59.42-.24,1.35-.09,1.92l1.51,5.59,1.79-.34Z"/>
            <path class="cls-1" d="M87.84,106.32c-.15.95-.96,1.75-1.78,2.2-.77.42-1.73.62-2.57.33-.99-.33-1.4-1.13-1.86-1.97l-1.71-3.11c-.29-.52-.67-1.41-1.4-1.31v-.03s2.22-1.21,2.22-1.21l.02.03c-.46.54.07,1.36.36,1.88l1.71,3.11c.86,1.54,1.91,1.91,3.12,1.25.66-.35,1.18-.98,1.27-1.74.06-.49-.1-.78-.34-1.19l-1.93-3.51c-.29-.53-.69-1.41-1.39-1.32l-.02-.02,2.23-1.21.03.03c-.48.54.06,1.35.36,1.89l2.42,4.4c.29.52.69,1.41,1.41,1.31l.02.03-1.73.93-.42-.76Z"/>
            <path class="cls-1" d="M92.25,102.32c.48.57.82.99,1.62.85l.03.03-1.83,1.51-.02-.03c.28-.77-.07-1.18-.55-1.75l-3.43-4.07c-.48-.56-.82-.97-1.61-.83l-.02-.03,1.5-1.24h.01c.14.1.22.12.37.14l.32.09,7.72,1.59-3.26-3.85c-.48-.58-.81-.99-1.61-.85l-.02-.03,1.81-1.5.02.03c-.27.75.07,1.15.55,1.72l4.81,5.72c-.94.36-1.54.29-2.47.08l-7.26-1.51,3.32,3.94Z"/>
            <path class="cls-1" d="M95.77,92.11c-.46-.4-1.13-1.12-1.77-.78l-.03-.03,1.69-1.88.03.03c-.26.67.54,1.26.99,1.65l3.77,3.32c.45.4,1.12,1.11,1.76.77l.03.03-1.69,1.88-.03-.03c.27-.65-.53-1.25-.97-1.64l-3.77-3.33Z"/>
            <path class="cls-1" d="M101.38,85.55c-.57-.84-1.21-1.83-1.96-1.35h-.04s1.14-1.63,1.14-1.63l5.54,8.09c-1.04.41-1.31.6-2.39.31l-5.65-1.45c-.71-.19-1.46-.46-2.17-.24l-.03-.02,1.11-1.59.12.1c.24.17.93.34,1.23.41l5.99,1.57-2.91-4.2Z"/>
            <path class="cls-1" d="M108.35,83.77l.89-1.44c.46-.76.61-1.7.38-2.56v-.03s1.33,1.29,1.33,1.29l-2.45,4.97-.03-.02c.09-.71-.85-1.08-1.39-1.34l-4.53-2.19c-.55-.27-1.4-.76-1.92-.26l-.03-.02,1.87-3.81c.1-.2.22-.39.22-.59v-.04s1.42.68,1.42.68l-.02.03c-.62.16-.9.63-1.17,1.17-.21.41-.4.84-.52,1.26l2.23,1.09.7-1.42c.09-.19.19-.38.19-.56v-.04s1.29.62,1.29.62v.03c-.46.02-.69.53-.88.9l-.43.88,2.85,1.38Z"/>
            <path class="cls-1" d="M104.16,73.63c.56-1.69,1.75-2.32,2.91-1.94,1.12.36,1.67,1.62,1.58,2.72l2.89-1.07c.84-.32,1.76-.9,2.46-1.47l-.39,1.15c-.22.68-.52,1.04-1.11,1.26l-2.43.92-2.17.58c.18-1.06.09-2.39-1.1-2.78-.92-.29-1.71.32-1.95,1.18-.09.29-.14.58-.18.88l5.7,1.84c.58.19,1.49.57,1.93,0l.04.02-.79,2.41h-.04c-.02-.73-.99-.95-1.56-1.14l-4.8-1.54c-.59-.19-1.48-.58-1.95-.02h-.03s.99-3.01.99-3.01Z"/>
            <path class="cls-1" d="M107.74,65.06c-.61.43-1.04,1.19-1.17,1.93-.12.75.01,1.73.92,1.88,1.81.3,2.53-4.21,4.97-3.81,1.42.23,2.49,1.91,2.16,3.96-.13.8-.39,1.58-.78,2.28l-1.71.11c.79-.66,1.4-1.66,1.57-2.68.12-.75-.14-1.95-1.06-2.1-2.06-.33-2.44,4.23-5.24,3.77-1.67-.27-2.02-2.06-1.76-3.66.11-.65.31-1.31.61-1.9l1.49.24Z"/>
            <path class="cls-1" d="M108.12,62.79c-.62-.03-1.59-.18-1.88.47h-.03l.14-2.5h.04c.22.67,1.21.65,1.81.68l5.03.29c.61.03,1.57.17,1.87-.47h.04l-.14,2.51h-.04c-.2-.68-1.19-.65-1.79-.69l-5.04-.28Z"/>
            <path class="cls-1" d="M113.25,55.94c.77-.04,1.29-.06,1.66-.79h.05s.14,2.63.14,2.63h-.05c-.29-.65-1.26-.52-1.86-.48l-5.96.31.06,1.18c.03.56.21,1.15.62,1.54v.04s-1.61-.38-1.61-.38v-.04c.06-.15.05-.33.06-.5l-.02-.34-.27-4.94c0-.22-.03-.43-.12-.6v-.04s1.61.35,1.61.35v.04c-.46.2-.5.73-.48,1.17l.06,1.19,6.1-.32Z"/>
            <path class="cls-1" d="M112.07,47.99c.78-.16,1.18-.23,1.52-.99l.04-.02.53,2.54h-.04c-.46-.56-1.29-.3-1.91-.18l-1.94.4-3.06,2.87c-.51.47-.88.81-1.1,1.5l-.24-1.18c-.09-.42-.07-.81.17-1.05l2.99-2.78-2.77-1.12c-.37-.16-1.06-.32-1.27.48h-.04s-.47-2.27-.47-2.27l5.51,2.22,2.07-.42Z"/>
            <path class="cls-1" d="M14.27,38.56c0,.63-.52,1.15-1.16,1.15s-1.16-.52-1.16-1.15.51-1.15,1.16-1.15,1.16.51,1.16,1.15Z"/>
            <path class="cls-1" d="M107.84,38.56c0,.63-.52,1.15-1.16,1.15s-1.17-.52-1.17-1.15.52-1.15,1.17-1.15,1.16.51,1.16,1.15Z"/>
          </g>
          <path class="cls-1" d="M63.25,5.79h-1.13v-2.72h-1.36v7.06c-.46.5-1.24.47-1.24.47h-3.82c-.06,0-.1-.05-.1-.1v-5.51h4.09v-1.09h-5.45v6.6c0,.66.54,1.18,1.2,1.18h4.04s.67.06,1.28-.29v3.8h1.36V6.88h1.13v8.3h1.35V3.07h-1.35v2.72Z"/>
          <polygon class="cls-1" points="19.19 31.53 22.65 27.74 25.69 30.46 26.6 29.46 23.56 26.74 27.01 22.96 26.19 22.23 18.38 30.8 19.19 31.53"/>
          <path class="cls-1" d="M17.59,28.25c.49.44,1.25.4,1.69-.09l4.35-4.77c.44-.49.4-1.24-.09-1.68l-3.41-3.05-.92,1,1.39,1.23-4.13,4.54-1.39-1.24-.91,1,3.41,3.06ZM21.41,21.62l1.22,1.09s.05.1,0,.14l-4,4.39s-.1.04-.14,0l-1.22-1.09,4.13-4.54Z"/>
          <polygon class="cls-1" points="40.7 6.36 39.46 6.91 43.08 14.94 44.32 14.39 42.27 9.85 43.92 9.12 43.47 8.13 41.82 8.85 40.7 6.36"/>
          <path class="cls-1" d="M38.73,19.03l-1.34-2.98-1.24.55,1.34,2.98c.27.6.98.87,1.58.6l6.56-2.9-.45-.99-6.31,2.79c-.05.03-.11,0-.13-.05Z"/>
          <path class="cls-1" d="M35.75,10.14l-.48-1.07-1.24.55.48,1.07c1.43,3.17-1.34,5.19-1.53,5.32l1.21.46c.63-.56,1.93-1.89,2.05-3.61,1.36,1.06,3.22.99,4.07.89l.46-1.19c-.28.06-3.6.73-5.02-2.42Z"/>
          <g>
            <polygon class="cls-1" points="99.86 25.89 98.94 24.93 95.47 28.14 94.35 26.95 97.82 23.74 96.9 22.77 93.44 25.98 91.48 23.91 90.69 24.65 98.46 32.87 99.24 32.14 96.39 29.11 99.86 25.89"/>
            <path class="cls-1" d="M100.86,27.2c-1.41,1.31-2.55,1.72-2.55,1.72l.93.98s1.14-.41,2.54-1.72l3.52-3.26h0s0,0,0,0l-6.14-6.5-.79.73,5.21,5.53-2.72,2.53Z"/>
          </g>
          <g>
            <polygon class="cls-1" points="87.46 13.86 87.91 12.86 86.24 12.15 87.34 9.65 86.09 9.11 83.22 15.66 84.48 16.2 85.81 13.15 87.46 13.86"/>
            <polygon class="cls-1" points="84.25 16.69 76.36 13.29 75.93 14.29 82.57 17.15 81.23 20.22 82.48 20.76 84.25 16.69 84.25 16.69 84.25 16.69"/>
            <path class="cls-1" d="M84.68,9.7l-3.16-1.36.54-1.24-1.25-.54-.55,1.24-3.15-1.36-.44,1.01,1.54.66c-.56.27-1.02.71-1.28,1.29-.62,1.41.16,3.09,1.73,3.77,1.57.67,3.34.08,3.96-1.32.26-.59.27-1.23.08-1.82l1.54.66.44-1ZM79.11,12.17c-.88-.38-1.29-1.37-.91-2.23.37-.85,1.39-1.24,2.26-.86.87.38,1.28,1.37.91,2.23-.37.85-1.39,1.24-2.26.86Z"/>
          </g>
          <g>
            <path class="cls-1" d="M119.7,59.85c0,33.05-26.8,59.85-59.85,59.85S0,92.9,0,59.85,26.79,0,59.85,0s59.85,26.8,59.85,59.85ZM59.85.82C27.24.82.81,27.25.81,59.85s26.43,59.03,59.03,59.03,59.03-26.43,59.03-59.03S92.45.82,59.85.82Z"/>
            <path class="cls-1" d="M103.22,59.85c0,23.95-19.42,43.37-43.37,43.37s-43.38-19.42-43.38-43.37S35.89,16.48,59.85,16.48s43.37,19.42,43.37,43.37ZM59.85,17.29c-23.51,0-42.56,19.05-42.56,42.56s19.06,42.55,42.56,42.55,42.55-19.05,42.55-42.55-19.05-42.56-42.55-42.56Z"/>
          </g>
        </g>
        <g>
          <path class="cls-2" d="M86.87,83.38h-20.13c-6.22.04-7,4.14-7,4.14-1.28-4.65-7.27-4.15-7.27-4.15h-19.68v-28.86h18.97c6.32.12,7.99,5.11,7.99,5.11,2.07-5.06,8.59-5.11,8.59-5.11h18.52s0,28.87,0,28.87ZM67.07,51.64c-5.53.17-7.27,3.42-7.27,3.42-1.76-3.4-7.08-3.41-7.08-3.41h-22.8v34.58h22.33c3.04,0,4.12,1.43,4.48,2.46h6.17c1.07-2.59,4.18-2.44,4.18-2.44h22.7v-34.61h-22.71Z"/>
          <path class="cls-2" d="M48.12,67.81h-8.32v8.37h0s11.45,0,11.45,0v-.03h-.01v-5.47h2.9v5.5h11.42v-5.5h2.89v5.49h11.43v-2.89h-8.3v-2.6h8.3v-8.69h-11.44v5.81h-2.89v-5.81h-3.13v5.8h-5.18v-5.8h-3.12v5.81h-2.88v-5.81h-11.46v2.88h8.33v2.93ZM48.13,73.31h-5.2v-2.62h5.2v2.62ZM62.44,73.31h-5.18v-2.62h5.18v2.62ZM71.59,64.87h5.18v2.93h-5.18v-2.93Z"/>
          <g>
            <polygon class="cls-1" points="58.12 35.63 60.89 34.72 58.12 34.72 58.12 35.63"/>
            <path class="cls-1" d="M52.15,39.6c1.02-1.07,2.08-.93,2.08-.48s-.53,1-.53,1h-6.56l-3.6-5.18h0c-.9-1.33-2.05-1.91-3.95-1.91h-9.67v15.61c5.88,0,20.34-.01,22.04,0,6.51.06,7.78,2.83,7.78,2.83,1.37-2.16,3.99-2.82,8.05-2.83h21.98v-15.61h-9.8c-1.89,0-3.04.58-3.94,1.91h0l-3.67,5.18h-5.45v-4.62l3.73-3.64h-3.85s.97-.85.97-.85h-7.8c-1.57,0-2.81.64-3.25,1.53h-2.74c-2.53,0-3.45,1.42-2.93,3.29l1.12,3.76ZM86.87,45.77h-18.36c-4.89,0-7.18.33-8.73,2.02-1.68-1.62-2.98-2.01-7.88-2.01h-19.1v-9.86h6c.59-.01,1.09.13,1.41.3.24.13.67.43.99.86.4.55,3.96,5.76,3.96,5.76h10.26s.95-1.97,1.54-3.35c.6-1.39.39-2.37-.88-2.46-1.07-.08-1.74.17-1.85.61l-.45-1.56c-.28-.79-.08-1.36,1.02-1.36h3.32s.07-1.08,1.9-1.08h5.48l-1.54,1.42v7.77h10.63s3.38-5.21,3.78-5.76c.31-.43.74-.73.99-.86.32-.17.82-.31,1.41-.32h6.11v9.88Z"/>
          </g>
          <path class="cls-2" d="M55.24,79.26c.4-.14.75-.42.95-.76h.02v2.47c0,.25-.02.45.22.6v.02h-.92v-.02c.27-.13.25-.34.25-.6v-1.69h-.51Z"/>
          <path class="cls-2" d="M57.5,81.39c.72-.15,1.36-.79,1.36-1.52,0-.44-.25-.94-.76-.94-.38,0-.65.3-.65.66,0,.4.27.72.67.72.16,0,.33-.05.47-.14l-.3.37c-.11.04-.24.06-.36.06-.52,0-.92-.39-.92-.9,0-.65.52-1.07,1.15-1.07.69,0,1.15.54,1.15,1.2,0,.5-.27.99-.66,1.29-.4.32-.85.48-1.35.54l.22-.27Z"/>
          <path class="cls-2" d="M61.01,80.63c-.39,0-.7-.02-.94-.03l.94-1.59v1.62ZM61.01,80.98v.11c0,.23.03.38-.22.47v.02h.86v-.02c-.2-.09-.2-.3-.2-.49v-.09h.35l.21-.53c-.15.13-.36.18-.57.18v-1.94h-.61l-1.37,2.28h1.54Z"/>
          <path class="cls-2" d="M64.13,78.89c-.29.04-.65.27-.87.47-.3.28-.48.65-.48,1.06,0,.45.26.94.77.94.39,0,.62-.29.62-.67,0-.43-.23-.73-.68-.73-.17,0-.34.05-.49.15l.28-.35c.12-.05.25-.08.39-.08.55,0,.94.37.94.93,0,.62-.5,1.05-1.11,1.05-.69,0-1.17-.55-1.17-1.22,0-1.04,1.06-1.72,2-1.81l-.21.27Z"/>
        </g>
      </g>
      <g>
        <path class="cls-1" d="M146.64,86.44c3.26,0,5.75,1.58,5.75,4.39s-2.68,4.72-5.52,4.72c-.63,0-1.25-.07-1.83-.36,2.16-.12,4.5-1.45,4.5-3.86,0-2.2-1.56-3.09-3.56-3.09-.61,0-1.18.05-1.76.15v11.32c0,1.41-.02,2.4,1.3,3.16v.08h-4.99v-.08c1.28-.46,1.13-2.31,1.13-3.43v-9.46c0-1.13.15-2.96-1.1-3.46v-.08h6.09Z"/>
        <path class="cls-1" d="M165.2,101.3c-1.1,1.45-3.16,2.05-4.92,2.05-1.66,0-3.41-.52-4.54-1.75-1.33-1.45-1.28-3.13-1.28-4.94v-6.71c0-1.13.18-2.96-1.1-3.43v-.08h4.76v.08c-1.25.47-1.1,2.3-1.1,3.43v6.71c0,3.33,1.4,4.89,3.99,4.89,1.4,0,2.83-.58,3.66-1.76.56-.76.53-1.38.53-2.29v-7.55c0-1.13.15-2.96-1.1-3.43v-.08h4.76l.02.08c-1.27.47-1.13,2.3-1.13,3.46v9.46c0,1.12-.14,2.95,1.13,3.43v.08h-3.68v-1.66Z"/>
        <path class="cls-1" d="M181.46,89.43c-.97-1-2.53-1.57-3.94-1.57s-3.25.54-3.25,2.28c0,3.44,8.63,3.38,8.63,8.03,0,2.68-2.81,5.19-6.72,5.19-1.52,0-3.06-.22-4.49-.75l-.73-3.14c1.48,1.28,3.54,2.09,5.49,2.09,1.44,0,3.6-.85,3.6-2.62,0-3.91-8.64-3.21-8.64-8.52,0-3.15,3.24-4.36,6.3-4.36,1.26,0,2.54.17,3.73.55v2.83Z"/>
        <path class="cls-1" d="M193.63,94.9h-4.94l2.48-6.32,2.46,6.32ZM194.36,96.76l1.35,3.53c.69,1.75.88,2.04-.34,2.58v.08h5.14v-.08c-1.42-.73-1.88-2.13-2.45-3.57l-5.22-12.87h-3.97v.08c1.21.37.73,1.44.38,2.33l-4.19,10.46c-.55,1.43-.97,2.84-2.43,3.57v.08h4.63v-.08c-1.22-.46-1.04-1.18-.5-2.58l1.3-3.53h6.32Z"/>
        <path class="cls-1" d="M203.98,99.69c0,1.41-.04,2.41,1.3,3.19v.08h-4.44v-.08c1.33-.78,1.33-1.78,1.33-3.19v-10.01c0-1.4,0-2.4-1.31-3.15v-.08h3.66v.03c.11.3.2.43.37.62l.35.51,9.19,11.58v-9.51c0-1.4.02-2.4-1.31-3.15v-.08h4.41v.08c-1.3.75-1.3,1.75-1.3,3.15v14.08c-1.78-.61-2.55-1.42-3.66-2.86l-8.6-10.91v9.7Z"/>
        <path class="cls-1" d="M229.55,99.69c0,1.41-.03,2.41,1.29,3.19v.08h-4.44v-.08c1.33-.78,1.33-1.78,1.33-3.19v-10.01c0-1.4,0-2.4-1.31-3.15v-.08h3.67v.03c.1.3.2.43.38.62l.35.51,9.17,11.58v-9.51c0-1.4.02-2.4-1.3-3.15v-.08h4.41v.08c-1.3.75-1.3,1.75-1.3,3.15v14.08c-1.79-.61-2.57-1.42-3.67-2.86l-8.6-10.91v9.7Z"/>
        <path class="cls-1" d="M253.93,94.9h-4.94l2.48-6.32,2.46,6.32ZM254.65,96.76l1.35,3.53c.68,1.75.88,2.04-.35,2.58v.08h5.14v-.08c-1.43-.73-1.88-2.13-2.46-3.57l-5.22-12.87h-3.95v.08c1.19.37.73,1.44.37,2.33l-4.2,10.46c-.56,1.43-.97,2.84-2.43,3.57v.08h4.62v-.08c-1.2-.46-1.03-1.18-.5-2.58l1.3-3.53h6.33Z"/>
        <path class="cls-1" d="M266.4,99.69c0,1.44-.02,2.41,1.3,3.19v.08h-4.96v-.08c1.25-.48,1.1-2.31,1.1-3.43v-11.2h-2.21c-1.08,0-2.21.28-2.99,1.01h-.08l.89-3h.08c.29.13.63.13.96.18h9.98c.43,0,.83-.02,1.15-.18h.08l-.81,3h-.08c-.32-.88-1.33-1.01-2.16-1.01h-2.25v11.44Z"/>
        <path class="cls-1" d="M274.6,89.99c0-1.16.18-2.99-1.09-3.46v-.08h4.75v.08c-1.25.47-1.1,2.33-1.1,3.46v9.46c0,1.12-.15,2.95,1.1,3.43v.08h-4.75v-.08c1.23-.46,1.09-2.31,1.09-3.43v-9.46Z"/>
        <path class="cls-1" d="M288.76,87.83c3.97,0,6.31,3.53,6.31,7.2s-2.44,6.52-6.25,6.52-6.42-3.62-6.42-7.12c0-3.79,2.48-6.61,6.36-6.61ZM288.94,86.02c-5.26-.12-9.39,3.86-9.39,8.63,0,5.14,4.17,8.7,9.13,8.7s9.25-3.71,9.25-8.83c0-4.51-3.72-8.52-8.99-8.5Z"/>
        <path class="cls-1" d="M301.85,99.69c0,1.41-.03,2.41,1.3,3.19v.08h-4.43v-.08c1.32-.78,1.32-1.78,1.32-3.19v-10.01c0-1.4,0-2.4-1.3-3.15v-.08h3.65v.03c.1.3.2.43.37.62l.35.51,9.18,11.58v-9.51c0-1.4.03-2.4-1.31-3.15v-.08h4.42v.08c-1.3.75-1.3,1.75-1.3,3.15v14.08c-1.79-.61-2.55-1.42-3.67-2.86l-8.61-10.91v9.7Z"/>
        <path class="cls-1" d="M326.12,94.9h-4.94l2.48-6.32,2.46,6.32ZM326.86,96.76l1.35,3.53c.68,1.75.87,2.04-.34,2.58v.08h5.13v-.08c-1.42-.73-1.87-2.13-2.45-3.57l-5.22-12.87h-3.96v.08c1.21.37.74,1.44.39,2.33l-4.19,10.46c-.55,1.43-.98,2.84-2.42,3.57v.08h4.6v-.08c-1.2-.46-1.03-1.18-.51-2.58l1.32-3.53h6.32Z"/>
        <path class="cls-1" d="M341,101.15c1.7.1,3.19-.48,4.44-1.53h.07l-1.29,3.34h-10.32v-.08c1.28-.46,1.13-2.31,1.13-3.43v-9.46c0-1.16.15-2.99-1.13-3.46v-.08h4.79v.08c-1.3.47-1.1,2.33-1.1,3.46v10.94l3.4.23Z"/>
        <path class="cls-1" d="M364.26,101.3c-1.11,1.45-3.16,2.05-4.92,2.05s-3.4-.52-4.54-1.75c-1.34-1.45-1.29-3.13-1.29-4.94v-6.71c0-1.13.18-2.96-1.1-3.43v-.08h4.76v.08c-1.24.47-1.1,2.3-1.1,3.43v6.71c0,3.33,1.4,4.89,3.99,4.89,1.4,0,2.83-.58,3.67-1.76.54-.76.52-1.38.52-2.29v-7.55c0-1.13.15-2.96-1.11-3.43v-.08h4.76l.04.08c-1.29.47-1.13,2.3-1.13,3.46v9.46c0,1.12-.16,2.95,1.13,3.43v.08h-3.69v-1.66Z"/>
        <path class="cls-1" d="M373.34,99.69c0,1.41-.04,2.41,1.29,3.19v.08h-4.44v-.08c1.34-.78,1.34-1.78,1.34-3.19v-10.01c0-1.4,0-2.4-1.31-3.15v-.08h3.66v.03c.09.3.19.43.37.62l.37.51,9.16,11.58v-9.51c0-1.4.04-2.4-1.29-3.15v-.08h4.41v.08c-1.3.75-1.3,1.75-1.3,3.15v14.08c-1.78-.61-2.55-1.42-3.66-2.86l-8.6-10.91v9.7Z"/>
        <path class="cls-1" d="M390.57,89.99c0-1.16.18-2.99-1.11-3.46v-.08h4.79v.08c-1.26.47-1.1,2.33-1.1,3.46v9.46c0,1.12-.16,2.95,1.1,3.43v.08h-4.79v-.08c1.28-.46,1.11-2.31,1.11-3.43v-9.46Z"/>
        <path class="cls-1" d="M406.87,90.99c.68-1.78,1.52-3.84-.02-4.46v-.08h3.74l-6.63,17.27c-1.74-1.16-2.33-1.36-3.06-3.34l-3.79-10.26c-.48-1.28-.85-2.73-1.95-3.58v-.08h3.67l-.03.31c0,.55.47,1.78.68,2.34l3.98,10.9,3.42-9Z"/>
        <path class="cls-1" d="M415.43,100.84l3.19.31c1.64.15,3.38-.38,4.63-1.49h.08l-1.13,3.3h-10.45v-.08c1.29-.46,1.13-2.31,1.13-3.43v-9.46c0-1.16.15-2.99-1.13-3.46v-.08h8.03c.42,0,.86.06,1.18-.12h.08v2.94h-.08c-.79-.92-1.81-1.01-2.96-1.01-.89,0-1.76.03-2.55.18v4.67h2.98c.41,0,.79,0,1.1-.16h.07v2.67h-.07c-.4-.73-1.45-.71-2.23-.71h-1.85v5.95Z"/>
        <path class="cls-1" d="M430.46,86.44c3.35,0,5.19,1.76,5.19,4.05s-1.93,3.95-3.98,4.41l3.62,4.55c1.04,1.3,2.63,2.6,4.06,3.51h-2.31c-1.34,0-2.15-.34-2.91-1.26l-3.06-3.79-2.31-3.53c2.01-.31,4.34-1.22,4.34-3.59,0-1.81-1.56-2.85-3.23-2.78-.59.02-1.14.1-1.71.19v11.25c0,1.14-.16,2.97,1.12,3.43v.08h-4.79v-.08c1.28-.46,1.09-2.31,1.09-3.43v-9.46c0-1.16.19-2.99-1.09-3.46v-.08h5.97Z"/>
        <path class="cls-1" d="M448.6,89.43c-.99-1-2.54-1.57-3.96-1.57s-3.23.54-3.23,2.28c0,3.44,8.64,3.38,8.64,8.03,0,2.68-2.82,5.19-6.73,5.19-1.54,0-3.07-.22-4.5-.75l-.73-3.14c1.49,1.28,3.54,2.09,5.5,2.09,1.43,0,3.6-.85,3.6-2.62,0-3.91-8.64-3.21-8.64-8.52,0-3.15,3.24-4.36,6.3-4.36,1.27,0,2.55.17,3.75.55v2.83Z"/>
        <path class="cls-1" d="M453.02,89.99c0-1.16.19-2.99-1.1-3.46v-.08h4.76v.08c-1.25.47-1.09,2.33-1.09,3.46v9.46c0,1.12-.16,2.95,1.09,3.43v.08h-4.76v-.08c1.25-.46,1.1-2.31,1.1-3.43v-9.46Z"/>
        <path class="cls-1" d="M465.63,99.69c0,1.44-.02,2.41,1.31,3.19v.08h-4.98v-.08c1.26-.48,1.1-2.31,1.1-3.43v-11.2h-2.2c-1.08,0-2.2.28-2.98,1.01h-.08l.88-3h.08c.29.13.63.13.95.18h9.99c.43,0,.83-.02,1.16-.18h.07l-.79,3h-.08c-.33-.88-1.35-1.01-2.16-1.01h-2.27v11.44Z"/>
        <path class="cls-1" d="M478.56,99.69c0,1.52,0,2.26,1.28,3.19v.08h-4.89v-.08c1.23-.63,1.04-2.25,1.04-3.43v-3.72l-4.16-6.69c-.68-1.1-1.18-1.94-2.39-2.59h2.29c.8,0,1.55.18,1.88.71l4.01,6.55,3.11-4.66c.43-.63,1.01-1.83-.39-2.51v-.08h4.39l-6.16,9.29v3.96Z"/>
      </g>
      <g>
        <path class="cls-1" d="M329.82,30.16h-5.27v-12.82h-6.34v33.22c-2.18,2.34-5.83,2.19-5.83,2.19h-17.83c-.26,0-.46-.22-.46-.48v-25.96s19.09,0,19.09,0v-5.14h-25.44s0,31.09,0,31.09c0,3.08,2.51,5.54,5.6,5.54h18.89s3.11.29,5.98-1.35v17.88h6.34v-39.07h5.27v39.07h6.34V17.34h-6.34v12.82Z"/>
        <g>
          <polygon class="cls-1" points="140.51 55.22 164.57 55.22 164.57 74.34 170.91 74.34 170.91 55.22 194.89 55.22 194.89 50.1 140.51 50.1 140.51 55.22"/>
          <path class="cls-1" d="M152.55,44.88h30.28c3.09,0,5.6-2.5,5.6-5.59v-21.45s-6.33,0-6.33,0v8.68h-28.79v-8.68h-6.35v21.45c.01,3.09,2.51,5.59,5.6,5.59ZM182.09,31.63v7.66c0,.27-.22.47-.47.47h-27.84c-.26,0-.47-.21-.47-.47v-7.66s28.78,0,28.78,0Z"/>
        </g>
        <g>
          <polygon class="cls-1" points="260.55 17.32 254.21 17.32 254.21 58.7 260.55 58.7 260.55 35.27 268.97 35.27 268.97 30.15 260.55 30.15 260.55 17.32"/>
          <path class="cls-1" d="M227.83,67.98v-15.36h-6.34v15.36c0,3.07,2.5,5.58,5.58,5.58h33.5v-5.11h-32.26c-.27,0-.48-.21-.48-.47Z"/>
          <path class="cls-1" d="M232.18,24.13v-5.53h-6.34v5.53c0,16.38-15.68,19.74-16.76,19.96l4.27,4.28c3.78-1.18,11.88-4.44,15.66-11.6,3.76,7.14,11.83,10.4,15.62,11.59l4.27-4.27c-1.32-.27-16.72-3.71-16.72-19.95Z"/>
        </g>
        <g>
          <polygon class="cls-1" points="462.71 41.63 456.45 41.63 456.45 63.79 448.8 63.79 448.8 41.63 442.55 41.63 442.55 63.79 429.2 63.79 429.2 68.85 482.22 68.85 482.22 63.79 462.71 63.79 462.71 41.63"/>
          <path class="cls-1" d="M470.42,42.43c0,8.99-2.23,14.2-2.23,14.2h6.34s2.19-5.21,2.19-14.2v-22.46h-.02s-41.91,0-41.91,0v5.06h35.63v17.42Z"/>
        </g>
        <g>
          <polygon class="cls-1" points="405.63 30.15 405.63 17.34 399.27 17.34 399.27 50.93 405.63 50.93 405.63 35.29 414.07 35.29 414.07 30.15 405.63 30.15"/>
          <polygon class="cls-1" points="405.62 53.45 365.45 53.45 365.45 58.59 399.27 58.59 399.27 74.34 405.63 74.34 405.63 53.48 405.62 53.48 405.62 53.45"/>
          <path class="cls-1" d="M389.56,35.63c0-3.02-1.14-5.79-3.04-7.99h7.83v-5.17h-16.07v-6.39h-6.37v6.39h-16.06v5.17h7.82c-1.9,2.2-3.06,4.97-3.06,7.99,0,7.2,6.48,13.04,14.48,13.04s14.47-5.84,14.47-13.04ZM367.02,35.58c0-4.38,3.61-7.93,8.07-7.93s8.07,3.55,8.07,7.93-3.62,7.93-8.07,7.93-8.07-3.56-8.07-7.93Z"/>
        </g>
      </g>
    </g>
  </g>
</svg>